<svg version="1.1" xmlns="http://www.w3.org/2000/svg" xmlns:xlink="http://www.w3.org/1999/xlink" x="0px" y="0px" viewBox="0 0 1000 1000" enable-background="new 0 0 1000 1000" xml:space="preserve"><g><g><path d="M850.3,103.5c-31.2-31.4-85.7-31.6-117.1-0.5c-32.4,32.1-32.7,84.7-0.5,117.1c90.4,91.1,115.8,221.4,66.4,340.1C759.9,654.2,662,754.5,504.2,754.5c-134.3,0-249.9-74.1-301.6-193.4c-50.5-116.5-28.1-246.5,58.6-339c31.2-33.4,29.5-85.8-3.9-117.1c-32-30-87-28.2-117,3.9C7.8,250.5-26.5,449,50.7,627c78.4,180.8,252.2,293.1,453.6,293.1c200.1,0,371.6-113.4,447.7-296.1C1027.6,442.4,988.7,243,850.3,103.5z"/></g><g></g><g></g><g></g><g></g><g></g><g></g><g></g><g></g><g></g><g></g><g></g><g></g><g></g><g></g><g></g></g></svg>