<svg id="svg" version="1.1" xmlns="http://www.w3.org/2000/svg" xmlns:xlink="http://www.w3.org/1999/xlink" width="400" height="179.74947807933194" viewBox="0, 0, 400,179.74947807933194"><g id="svgg"><path id="path0" d="M0.036 0.944 L 0.090 1.888 150.554 1.933 L 301.019 1.978 302.897 1.507 C 305.154 0.942,308.302 0.962,310.202 1.552 C 311.243 1.876,312.856 1.888,355.596 1.888 L 399.910 1.888 399.964 0.944 L 400.019 0.000 200.000 -0.000 L -0.019 -0.000 0.036 0.944 " stroke="none" fill="#ccccc4" fill-rule="evenodd"></path><path id="path1" d="M302.778 1.528 L 301.107 1.960 298.014 4.774 C 296.313 6.322,294.359 8.085,293.672 8.693 C 292.985 9.301,291.448 10.689,290.257 11.779 C 286.292 15.405,281.272 19.972,280.180 20.947 C 279.587 21.477,276.512 24.272,273.348 27.159 C 270.184 30.047,267.110 32.840,266.517 33.368 C 262.477 36.959,257.987 41.124,257.558 41.679 C 254.224 45.986,255.998 52.591,260.947 54.293 C 264.641 55.564,267.245 54.740,271.287 51.020 C 272.618 49.795,273.877 48.675,274.085 48.531 C 274.292 48.387,277.447 45.538,281.096 42.200 C 284.745 38.862,288.216 35.691,288.809 35.152 C 290.080 34.000,295.907 28.693,297.393 27.335 L 298.427 26.391 298.422 40.836 L 298.416 55.281 294.270 59.056 C 291.989 61.133,289.787 63.134,289.376 63.504 C 288.965 63.874,285.535 66.988,281.754 70.425 C 277.972 73.862,272.563 78.778,269.734 81.348 C 266.904 83.919,263.923 86.629,263.109 87.371 C 262.296 88.112,261.435 88.875,261.197 89.065 C 258.213 91.449,256.691 93.375,256.150 95.446 C 254.589 101.425,259.268 106.537,265.379 105.528 C 267.909 105.110,267.802 105.190,276.606 97.109 C 280.196 93.814,283.359 90.944,283.634 90.731 C 283.910 90.519,286.996 87.714,290.493 84.498 C 293.990 81.283,297.205 78.388,297.639 78.066 L 298.427 77.480 298.427 121.347 L 298.427 165.213 276.350 165.213 L 254.273 165.213 253.728 164.629 C 253.428 164.308,252.539 163.236,251.753 162.247 C 250.966 161.258,249.355 159.251,248.172 157.785 C 246.990 156.320,245.294 154.205,244.404 153.084 C 242.943 151.244,241.796 149.814,238.611 145.857 C 238.040 145.148,236.845 143.661,235.955 142.553 C 234.099 140.241,231.433 136.938,230.382 135.647 C 229.987 135.161,229.501 134.546,229.303 134.279 C 229.106 134.012,228.488 133.239,227.932 132.560 C 227.375 131.881,226.302 130.557,225.547 129.618 C 224.793 128.679,223.428 126.986,222.514 125.857 C 219.628 122.287,219.059 121.579,216.005 117.753 C 214.860 116.319,213.687 114.863,213.399 114.517 C 213.111 114.171,212.461 113.380,211.956 112.760 C 210.393 110.843,208.704 110.026,206.022 109.890 C 202.824 109.728,201.094 110.623,198.567 113.747 C 196.788 115.945,193.050 120.590,189.121 125.483 C 187.732 127.213,185.647 129.797,184.488 131.224 C 183.330 132.651,181.775 134.600,181.034 135.555 C 179.534 137.488,178.518 138.678,178.450 138.581 C 178.425 138.546,177.800 137.789,177.061 136.899 C 176.322 136.009,175.180 134.593,174.523 133.753 C 173.867 132.912,172.535 131.239,171.564 130.034 C 170.592 128.828,169.231 127.138,168.539 126.277 C 167.847 125.416,166.808 124.136,166.231 123.434 C 165.654 122.732,164.875 121.749,164.500 121.250 C 164.125 120.752,162.795 119.093,161.544 117.565 C 160.294 116.037,158.727 114.118,158.062 113.302 C 153.899 108.185,148.234 108.559,143.743 114.247 C 142.678 115.597,142.485 115.838,140.004 118.932 C 138.890 120.322,137.735 121.768,137.438 122.144 C 136.888 122.842,135.767 124.230,133.843 126.597 C 133.249 127.326,132.521 128.234,132.225 128.614 C 131.928 128.994,130.855 130.326,129.841 131.574 C 128.827 132.822,127.534 134.449,126.968 135.191 C 126.401 135.933,125.162 137.470,124.212 138.607 C 123.263 139.744,122.199 141.052,121.849 141.513 C 121.499 141.974,120.252 143.538,119.078 144.989 C 117.904 146.440,116.784 147.842,116.590 148.106 C 116.395 148.369,115.384 149.624,114.342 150.895 C 113.301 152.166,111.964 153.826,111.371 154.584 C 110.351 155.887,107.158 159.866,104.174 163.551 L 102.828 165.213 66.275 165.213 C 46.171 165.213,23.035 165.267,14.861 165.333 L 0.000 165.452 0.000 172.614 L 0.000 179.775 200.000 179.775 L 400.000 179.775 400.000 172.494 L 400.000 165.213 357.303 165.213 L 314.607 165.213 314.607 121.310 L 314.607 77.406 315.551 78.313 C 316.712 79.429,320.533 82.916,322.324 84.494 C 323.053 85.137,326.611 88.374,330.230 91.686 C 333.848 94.999,337.022 97.871,337.283 98.068 C 337.544 98.266,339.192 99.741,340.944 101.347 C 344.521 104.624,345.525 105.253,347.657 105.548 C 354.311 106.470,359.012 100.160,356.221 94.053 C 355.618 92.732,353.907 91.058,344.449 82.534 C 343.807 81.955,340.692 79.119,337.528 76.232 C 334.364 73.345,331.290 70.548,330.697 70.016 C 329.783 69.198,319.853 60.169,317.292 57.828 C 316.842 57.416,316.053 56.730,315.540 56.305 L 314.607 55.531 314.607 41.159 C 314.607 33.254,314.661 26.787,314.726 26.787 C 314.792 26.787,315.352 27.252,315.971 27.820 C 316.589 28.389,317.648 29.347,318.323 29.950 C 318.998 30.553,322.099 33.372,325.213 36.214 C 328.328 39.056,331.362 41.814,331.955 42.343 C 332.548 42.872,335.258 45.344,337.978 47.837 C 345.118 54.382,345.626 54.707,348.764 54.728 C 355.318 54.774,359.163 48.124,355.877 42.427 C 355.494 41.764,354.644 40.925,350.831 37.448 C 349.546 36.275,346.957 33.911,345.079 32.193 C 343.200 30.476,341.178 28.639,340.584 28.112 C 339.016 26.718,327.250 16.033,319.044 8.550 C 314.027 3.975,311.754 2.018,311.260 1.844 C 308.741 0.962,305.446 0.839,302.778 1.528 M152.856 132.869 C 153.623 133.800,154.756 135.198,155.373 135.975 C 155.990 136.753,157.040 138.067,157.708 138.897 C 159.971 141.708,161.449 143.549,161.879 144.090 C 165.391 148.507,166.527 149.916,166.881 150.292 C 167.609 151.066,167.950 151.693,167.790 151.963 C 167.635 152.224,166.861 153.195,162.607 158.467 C 161.222 160.182,159.443 162.401,158.652 163.397 L 157.213 165.209 140.530 165.211 L 123.847 165.213 124.350 164.539 C 124.627 164.169,125.380 163.216,126.022 162.422 C 126.665 161.628,127.779 160.253,128.497 159.366 C 130.426 156.983,134.609 151.758,135.637 150.446 C 136.129 149.818,137.069 148.656,137.724 147.865 C 138.380 147.074,139.231 146.014,139.615 145.509 C 140.000 145.005,140.839 143.953,141.479 143.172 C 143.734 140.423,150.672 131.738,150.884 131.399 C 151.192 130.905,151.310 130.993,152.856 132.869 M206.292 131.757 C 206.589 132.136,207.762 133.597,208.899 135.005 C 212.280 139.190,214.440 141.871,215.280 142.921 C 215.715 143.465,216.823 144.841,217.743 145.979 C 218.663 147.117,219.820 148.563,220.315 149.192 C 220.809 149.822,222.346 151.737,223.730 153.448 C 225.115 155.160,226.783 157.233,227.437 158.055 C 228.091 158.878,229.224 160.289,229.954 161.191 C 231.954 163.663,232.346 164.161,232.503 164.429 C 232.625 164.636,228.412 164.674,205.672 164.674 C 190.835 164.674,178.697 164.629,178.697 164.575 C 178.697 164.520,179.971 162.913,181.528 161.003 C 183.085 159.093,185.533 156.060,186.966 154.263 C 190.778 149.487,194.147 145.282,196.494 142.373 C 197.631 140.964,198.885 139.390,199.281 138.875 C 199.676 138.360,201.012 136.694,202.250 135.172 C 203.487 133.650,204.725 132.101,205.001 131.730 C 205.613 130.906,205.624 130.906,206.292 131.757 " stroke="none" fill="#4c1c0c" fill-rule="evenodd"></path></g></svg>