<?xml version="1.0" standalone="no"?>
<!DOCTYPE svg PUBLIC "-//W3C//DTD SVG 20010904//EN"
 "http://www.w3.org/TR/2001/REC-SVG-20010904/DTD/svg10.dtd">
<svg version="1.0" xmlns="http://www.w3.org/2000/svg"
 width="512.000000pt" height="512.000000pt" viewBox="0 0 512.000000 512.000000"
 preserveAspectRatio="xMidYMid meet">
<metadata>
Created by potrace 1.15, written by Peter Selinger 2001-2017
</metadata>
<g transform="translate(0.000000,512.000000) scale(0.100000,-0.100000)"
fill="#000000" stroke="none">
<path d="M2013 4916 c-23 -12 -55 -40 -70 -61 l-28 -40 -3 -227 c-3 -193 -6
-228 -18 -228 -43 0 -266 -88 -279 -111 -4 -5 -10 -7 -15 -4 -4 3 -13 -2 -20
-10 -7 -8 -16 -13 -20 -10 -4 3 -13 -2 -20 -10 -7 -8 -18 -15 -25 -15 -7 0
-33 -18 -58 -40 -50 -45 -65 -48 -93 -22 -10 10 -27 21 -36 25 -10 3 -18 10
-18 15 0 5 -25 26 -55 46 -30 20 -55 41 -55 46 0 6 -7 10 -15 10 -8 0 -15 5
-15 10 0 6 -12 16 -27 23 -15 6 -39 23 -53 35 -56 52 -161 70 -255 42 -41 -11
-65 -29 -132 -98 -46 -46 -83 -87 -83 -90 0 -4 -18 -27 -41 -52 -22 -25 -47
-57 -55 -72 -8 -16 -18 -28 -22 -28 -9 0 -62 -77 -62 -88 0 -4 -9 -13 -19 -19
-11 -7 -22 -26 -26 -43 -4 -16 -14 -36 -24 -42 -10 -7 -24 -28 -32 -45 -7 -18
-16 -33 -19 -33 -3 0 -14 -22 -25 -50 -11 -27 -23 -50 -27 -50 -4 0 -8 -9 -8
-20 0 -19 -18 -59 -31 -70 -11 -9 -21 -74 -21 -135 0 -66 8 -116 27 -151 19
-38 131 -151 156 -159 13 -4 31 -13 39 -20 8 -7 29 -19 45 -27 55 -28 120 -63
125 -68 5 -5 80 -46 118 -64 22 -10 23 -15 17 -76 -9 -86 -9 -529 0 -607 l7
-62 -39 -23 c-59 -36 -95 -56 -135 -74 -21 -9 -38 -20 -38 -25 0 -5 -6 -9 -14
-9 -7 0 -24 -9 -38 -19 -13 -11 -37 -23 -52 -27 -15 -3 -30 -13 -33 -20 -3 -8
-10 -14 -16 -14 -6 0 -19 -7 -29 -17 -10 -9 -28 -21 -41 -27 -12 -6 -23 -22
-25 -34 -2 -12 -8 -22 -13 -22 -10 0 -43 -70 -54 -115 -10 -39 -10 -131 -1
-170 4 -16 16 -48 26 -70 56 -121 76 -160 83 -163 4 -2 7 -9 7 -16 0 -7 9 -21
20 -31 11 -10 20 -22 20 -26 0 -5 24 -43 53 -85 28 -42 57 -83 62 -92 25 -38
52 -71 134 -160 17 -19 31 -37 31 -42 0 -5 14 -18 30 -30 17 -12 37 -34 45
-49 8 -16 29 -36 47 -45 18 -10 44 -24 58 -32 27 -15 136 -10 154 7 6 5 22 9
36 9 31 0 90 27 90 41 0 5 6 9 14 9 8 0 18 9 21 20 3 11 12 20 19 20 7 0 21 9
31 20 10 11 22 20 28 20 5 0 24 16 43 35 18 19 37 35 43 35 5 0 26 16 47 35
20 19 40 35 44 35 3 0 17 -11 30 -25 13 -14 28 -25 35 -25 6 0 18 -9 28 -20 9
-11 24 -20 32 -20 8 0 15 -4 15 -9 0 -5 8 -11 18 -15 9 -3 24 -10 32 -15 37
-25 194 -91 224 -94 18 -2 47 -10 64 -18 l32 -14 0 -203 c0 -171 3 -210 17
-240 9 -21 20 -39 23 -42 4 -3 9 -13 13 -22 3 -9 25 -26 49 -36 35 -16 59 -19
133 -16 50 3 112 11 139 20 27 8 54 13 61 11 18 -8 127 17 155 35 14 9 42 19
64 23 21 3 55 15 75 26 20 10 44 19 54 19 10 0 20 7 23 15 4 8 14 15 23 15 34
1 102 82 127 153 25 69 27 85 28 262 1 148 3 172 19 187 9 10 21 18 26 18 4 0
22 12 38 28 16 15 49 43 73 62 48 39 55 46 123 118 26 28 47 55 47 59 0 4 12
16 25 26 27 19 48 14 89 -24 11 -11 28 -19 38 -19 10 0 18 -4 18 -10 0 -5 23
-21 52 -35 53 -25 108 -33 108 -15 0 6 6 10 13 10 20 1 60 41 93 95 39 62 154
296 154 313 0 7 7 23 14 35 8 12 30 67 48 122 29 89 33 112 33 210 0 106 -1
111 -30 150 -16 22 -73 69 -127 105 l-97 65 -1 67 c0 37 5 70 10 73 6 4 10 58
10 130 0 72 -4 126 -10 130 -5 3 -10 35 -10 69 l0 63 58 41 c31 23 78 53 103
68 30 18 55 43 70 71 21 39 24 56 23 151 0 97 -4 117 -37 212 -21 57 -42 109
-47 114 -6 6 -10 16 -10 24 0 13 -82 194 -112 247 -6 10 -22 40 -35 64 -13 25
-43 63 -66 83 -60 55 -94 53 -205 -16 -48 -30 -96 -62 -106 -72 -19 -17 -20
-17 -30 2 -15 26 -255 264 -268 264 -5 0 -16 6 -24 14 -7 8 -25 23 -38 34 -25
19 -25 23 -29 188 -2 93 -6 178 -9 189 -22 99 -81 196 -138 225 -79 40 -128
60 -145 60 -9 0 -34 9 -54 19 -58 30 -140 52 -221 58 -41 3 -81 10 -88 16 -6
5 -51 10 -100 12 -72 2 -94 -2 -129 -19z m469 -1620 c14 -8 45 -17 67 -21 23
-4 41 -10 41 -14 0 -3 18 -14 40 -24 44 -19 69 -39 127 -102 60 -65 101 -122
112 -157 7 -21 16 -38 21 -38 4 0 11 -12 14 -27 4 -16 17 -59 29 -98 19 -59
22 -93 22 -220 0 -160 -16 -242 -70 -360 -13 -28 -26 -62 -30 -76 -12 -50
-141 -166 -234 -212 -30 -15 -61 -27 -68 -27 -7 0 -13 -4 -13 -10 0 -5 -14
-10 -30 -10 -17 0 -39 -5 -49 -12 -35 -22 -284 27 -304 59 -4 7 -15 13 -22 13
-8 0 -23 8 -34 19 -10 10 -23 20 -28 22 -17 7 -123 133 -123 146 0 7 -4 13 -9
13 -7 0 -38 57 -85 160 -19 43 -36 128 -36 187 0 24 -5 52 -12 62 -9 15 -9 29
-1 58 6 21 16 76 22 122 6 46 14 89 19 95 5 6 15 34 22 61 7 28 19 57 25 65 7
8 16 26 20 39 4 14 15 37 24 51 9 14 25 40 36 58 11 17 25 32 31 32 6 0 24 13
40 30 16 16 35 30 42 30 6 0 12 4 12 10 0 5 18 15 40 21 22 7 40 16 40 21 0 5
5 6 10 3 6 -3 16 -3 23 2 6 4 21 9 32 10 11 2 29 7 40 13 44 21 161 25 197 6z"/>
<path d="M4175 4672 c-55 -23 -94 -50 -134 -90 -33 -34 -33 -36 -29 -106 3
-39 14 -91 24 -116 19 -43 19 -46 2 -80 -34 -69 -48 -102 -54 -137 l-7 -35
-46 7 c-25 3 -55 9 -66 11 -15 4 -25 -4 -40 -28 -18 -30 -20 -51 -20 -224 l0
-190 28 -42 c21 -33 33 -42 56 -42 16 0 42 -3 59 -6 26 -5 31 -12 36 -47 4
-22 13 -52 20 -66 7 -14 22 -47 34 -72 l20 -45 -22 -45 c-16 -33 -21 -63 -21
-119 0 -72 2 -77 33 -108 17 -17 32 -34 32 -37 0 -4 21 -26 48 -51 47 -44 97
-74 124 -74 24 0 52 38 69 94 l16 51 76 3 75 3 16 -48 c48 -144 86 -148 213
-26 24 23 43 46 43 51 0 5 7 15 15 22 16 14 22 115 6 124 -5 3 -14 26 -20 52
-11 44 -3 95 20 129 4 6 12 29 19 53 l11 43 45 -2 c29 -2 49 2 59 12 26 26 40
183 27 300 -12 117 -30 146 -91 151 -35 3 -36 5 -52 63 -8 33 -21 74 -29 90
-18 42 -17 94 3 134 24 47 21 99 -7 156 -14 26 -29 51 -33 54 -4 3 -20 22 -35
41 -89 118 -130 137 -167 75 -11 -20 -24 -47 -27 -61 -8 -32 -17 -36 -51 -23
-15 7 -37 13 -48 14 -50 6 -65 17 -75 59 -21 83 -64 146 -100 145 -8 0 -33 -8
-55 -17z m343 -696 c17 -24 32 -52 32 -62 0 -11 6 -26 13 -32 8 -9 12 -48 12
-125 0 -101 -3 -116 -25 -154 -36 -61 -81 -91 -130 -87 -59 5 -124 64 -141
129 -6 22 -16 54 -23 70 -14 38 -14 159 1 177 6 7 14 28 18 46 8 37 64 102 88
102 9 0 18 4 21 9 12 19 101 -30 134 -73z"/>
<path d="M4557 2268 c-9 -7 -29 -44 -44 -83 l-28 -70 -75 0 c-66 1 -75 3 -78
20 -5 34 -33 100 -45 107 -7 4 -27 8 -45 8 -38 0 -117 -58 -187 -138 -39 -45
-40 -47 -40 -121 0 -57 5 -86 21 -116 23 -46 20 -65 -32 -168 -8 -16 -17 -46
-20 -68 -5 -30 -11 -39 -26 -39 -11 0 -41 -7 -67 -16 -80 -26 -86 -44 -86
-274 0 -179 2 -197 20 -222 21 -29 71 -38 92 -17 20 20 56 6 65 -26 15 -47 60
-149 70 -156 5 -3 -1 -28 -13 -55 -13 -29 -24 -78 -27 -121 -5 -71 -4 -71 32
-108 39 -38 155 -105 183 -105 19 0 80 63 87 89 29 113 28 111 55 112 14 1 33
0 40 -1 8 -1 20 5 25 12 6 8 20 17 32 20 17 4 24 -4 43 -46 31 -68 47 -85 74
-79 24 6 136 121 137 141 0 6 4 12 9 12 16 0 61 103 61 140 0 21 -8 52 -17 71
-20 40 -21 92 -3 134 8 17 21 57 29 90 16 58 17 60 52 63 57 5 77 34 90 133
17 131 -3 328 -34 330 -7 0 -31 0 -54 -1 -41 -1 -42 -1 -53 42 -7 24 -15 48
-19 53 -23 34 -31 85 -20 129 6 26 15 49 20 52 5 3 9 26 9 51 0 69 -35 121
-134 196 -52 39 -72 45 -99 25z m-70 -603 c34 -17 53 -32 53 -43 0 -10 8 -29
18 -42 14 -20 17 -46 17 -131 0 -59 -5 -117 -11 -130 -7 -13 -17 -39 -24 -56
-14 -37 -40 -67 -89 -102 -31 -21 -37 -22 -75 -11 -67 19 -82 34 -107 107 -25
74 -31 205 -10 226 6 6 11 18 11 26 0 38 55 122 98 151 25 17 50 30 55 30 6 0
34 -11 64 -25z"/>
</g>
</svg>
