<svg version="1.0" xmlns="http://www.w3.org/2000/svg"
 width="120" height="90" viewBox="0 0 282.000000 269.000000"
 preserveAspectRatio="xMidYMid meet">
<g transform="translate(0.000000,269.000000) scale(0.100000,-0.100000)"
fill="#3448c5" stroke="none">
<path d="M1315 2524 c-57 -14 -134 -38 -165 -51 -157 -70 -329 -262 -418 -468
-40 -91 -42 -93 -137 -137 -30 -14 -81 -54 -125 -98 -316 -315 -362 -959 -96
-1359 43 -64 158 -181 178 -181 4 0 8 54 8 120 l0 120 -47 58 c-56 69 -105
170 -134 277 -32 115 -32 345 -1 460 35 129 95 240 172 317 68 68 109 92 194
112 l48 12 33 92 c115 320 329 509 575 505 127 -2 225 -44 335 -144 134 -123
247 -348 284 -564 7 -38 14 -80 16 -91 4 -18 13 -22 62 -26 198 -16 347 -228
360 -513 9 -197 -39 -339 -154 -453 l-63 -64 0 -114 0 -115 43 25 c221 131
340 403 324 740 -7 153 -34 261 -98 393 -74 155 -180 259 -307 303 -44 16 -45
17 -62 85 -95 372 -318 651 -590 739 -54 18 -195 30 -235 20z"/>
<path d="M795 1313 c-60 -91 -111 -169 -113 -174 -2 -4 12 -9 30 -11 l33 -3 5
-420 c5 -399 6 -422 25 -455 34 -58 71 -70 221 -70 72 0 133 3 136 6 4 3 -8
28 -25 56 l-32 51 -3 419 -3 418 31 0 c16 0 30 5 30 11 0 8 -196 304 -219 331
-3 4 -55 -68 -116 -159z"/>
<path d="M1285 1119 c-61 -89 -111 -165 -113 -170 -2 -4 12 -9 30 -11 l33 -3
5 -325 c4 -286 7 -329 23 -357 32 -59 56 -68 204 -71 74 -2 140 -1 148 2 12 4
8 16 -18 57 l-32 52 -3 324 -3 323 31 0 c16 0 30 5 30 10 0 13 -211 330 -220
330 -3 0 -55 -73 -115 -161z"/>
<path d="M1772 923 l-113 -168 35 -3 35 -3 3 -227 c3 -199 5 -232 22 -265 32
-64 52 -72 209 -75 76 -2 143 0 148 5 5 5 -1 23 -15 43 -41 63 -46 93 -46 311
l0 209 35 0 c19 0 35 2 35 4 0 8 -221 331 -228 334 -4 1 -58 -73 -120 -165z"/>
</g>
</svg>
