<svg version="1.0" xmlns="http://www.w3.org/2000/svg"
 width="95px" height="95px" viewBox="0 0 322.000000 309.000000"
 preserveAspectRatio="xMidYMid meet"><g transform="translate(0.000000,309.000000) scale(0.100000,-0.100000)"
fill="#663399" stroke="none"><path d="M1505 3084 c-292 -30 -495 -90 -708 -210 -609 -345 -914 -1032 -748
-1688 156 -617 677 -1073 1331 -1167 109 -16 351 -16 460 0 668 96 1190 564
1339 1201 79 335 25 727 -142 1033 -103 189 -266 377 -434 504 -215 161 -494
277 -753 312 -89 12 -289 21 -345 15z m170 -162 c117 -94 254 -278 354 -475
106 -211 160 -418 164 -629 l2 -125 103 -82 c114 -91 165 -152 187 -225 22
-72 19 -118 -20 -310 -65 -323 -70 -336 -132 -363 -59 -24 -88 -11 -228 103
-71 59 -145 117 -162 131 l-33 25 -37 -30 c-158 -124 -393 -122 -559 5 l-32
24 -63 -53 c-35 -28 -66 -55 -69 -59 -3 -4 -45 -39 -95 -79 -90 -72 -90 -72
-142 -68 -43 4 -58 10 -78 34 -28 33 -27 29 -54 144 -87 364 -93 408 -67 494
25 82 70 139 180 225 l103 80 6 153 c5 126 11 174 36 271 75 289 237 575 429
761 69 66 110 96 132 96 9 0 43 -21 75 -48z m-307 -2202 c53 -26 168 -50 236
-50 59 0 188 30 236 55 33 17 60 13 85 -11 23 -24 22 -310 -2 -336 -26 -29
-65 -22 -113 19 -24 21 -45 33 -47 28 -3 -6 -30 -57 -61 -115 -94 -173 -121
-171 -217 13 l-60 116 -40 -39 c-44 -43 -82 -52 -109 -25 -20 20 -29 101 -24
225 3 93 5 103 27 121 29 24 37 24 89 -1z"/><path d="M1512 2301 c-102 -35 -162 -119 -162 -226 0 -74 24 -129 75 -174 54
-47 100 -64 176 -64 108 0 191 57 232 161 47 118 -19 253 -147 301 -69 26
-105 26 -174 2z m148 -126 c84 -43 78 -165 -10 -210 -78 -40 -180 19 -180 104
0 43 31 98 63 111 35 14 95 11 127 -5z"/></g></svg>
